<svg width="80" height="80" viewBox="0 0 80 80" fill="none" xmlns="http://www.w3.org/2000/svg">
<path d="M13.3335 66.6667L46.6668 33.3334M46.6668 33.3334V16.6667L33.3335 30M46.6668 33.3334H63.3335M33.3335 30V46.6667H50.0002M33.3335 30L20.0002 43.3334V60H36.6668" stroke="#D8C811" stroke-width="6.25" stroke-linecap="round" stroke-linejoin="round"/>
<path d="M46.6675 16.6668C48.7875 14.5568 51.7108 13.3334 54.9441 13.3334C56.4831 13.3326 58.0071 13.6349 59.4292 14.2231C60.8513 14.8113 62.1436 15.6739 63.2322 16.7616C64.3209 17.8494 65.1846 19.1409 65.774 20.5625C66.3634 21.9841 66.667 23.5078 66.6675 25.0468C66.6675 28.2834 65.4608 31.2134 63.3341 33.3334L50.0008 46.6668L36.6675 60.0001" stroke="#D8C811" stroke-width="6.25" stroke-linecap="round" stroke-linejoin="round"/>
</svg>
