<svg width="80" height="80" viewBox="0 0 80 80" fill="none" xmlns="http://www.w3.org/2000/svg">
<path d="M15.0636 66.6932L70.0003 66.6665V54.9998C68.2321 54.9998 66.5365 54.2974 65.2862 53.0472C64.036 51.797 63.3336 50.1013 63.3336 48.3332C63.3336 46.565 64.036 44.8693 65.2862 43.6191C66.5365 42.3689 68.2321 41.6665 70.0003 41.6665V29.9998H14.2603" stroke="#2E97ED" stroke-width="6.66667" stroke-linecap="round" stroke-linejoin="round"/>
<path d="M70.0015 30.0003L38.7181 13.3603C30.3448 13.7603 22.8581 18.0936 17.6281 24.777C12.8848 30.8436 10.0015 38.847 10.0015 47.6236C10.0015 54.6803 11.8681 61.2403 15.0648 66.6936M50.0015 43.3336V43.367M26.6681 43.3336V43.367M36.6681 53.3336V53.367" stroke="#2E97ED" stroke-width="6.66667" stroke-linecap="round" stroke-linejoin="round"/>
</svg>
