<svg width="80" height="80" viewBox="0 0 80 80" fill="none" xmlns="http://www.w3.org/2000/svg">
<path d="M45.4 27.9399L51.9534 21.3833C51.1781 20.6082 50.6058 19.6538 50.2874 18.6048C49.969 17.5558 49.9142 16.4444 50.1279 15.3691C50.3416 14.2938 50.8171 13.2878 51.5124 12.4403C52.2078 11.5927 53.1014 10.9296 54.1141 10.5099C55.1269 10.0901 56.2275 9.92658 57.3186 10.0338C58.4096 10.141 59.4574 10.5156 60.3691 11.1244C61.2808 11.7333 62.0283 12.5576 62.5453 13.5243C63.0624 14.491 63.3331 15.5703 63.3334 16.6666C64.43 16.6658 65.5098 16.9355 66.4772 17.4519C67.4446 17.9682 68.2697 18.7152 68.8794 19.6267C69.4891 20.5382 69.8645 21.586 69.9724 22.6772C70.0804 23.7685 69.9174 24.8695 69.498 25.8827C69.0787 26.896 68.4159 27.7901 67.5683 28.4859C66.7208 29.1817 65.7147 29.6577 64.6392 29.8717C63.5637 30.0857 62.452 30.0311 61.4026 29.7128C60.3533 29.3944 59.3987 28.8221 58.6234 28.0466L52.5567 34.1166M25 53.3333L28.3334 56.6666M19.68 61.9866C28.79 71.0999 39.3467 75.3199 43.2467 71.4166C47.1534 67.5099 42.9334 56.9566 33.82 47.8466C24.71 38.7333 14.1534 34.5133 10.2534 38.4166C6.3467 42.3233 10.5667 52.8766 19.68 61.9866Z" stroke="#CC591B" stroke-width="6.66667" stroke-linecap="round" stroke-linejoin="round"/>
<path d="M43.2506 71.4166C56.2672 58.3966 59.4339 40.4566 50.3206 31.3466C41.2106 22.2332 23.2706 25.3999 10.2539 38.4166" stroke="#CC591B" stroke-width="6.66667" stroke-linecap="round" stroke-linejoin="round"/>
</svg>
