<svg width="32" height="32" viewBox="0 0 32 32" fill="none" xmlns="http://www.w3.org/2000/svg">
<rect width="32" height="32" rx="6" fill="white"/>
<path fill-rule="evenodd" clip-rule="evenodd" d="M12.5516 5.38052C12.4899 5.29372 12.4505 5.19203 12.3873 5.10406C12.2184 4.86852 11.9843 4.68412 11.7146 4.57687C11.4487 4.47108 11.1643 4.4854 10.8841 4.48598C10.534 4.48715 10.1839 4.4854 9.83376 4.4854C9.62627 4.4854 9.35888 4.53332 9.16775 4.45676C9.38693 4.03769 9.73002 3.59173 10.1891 3.42457C10.4492 3.32989 10.7309 3.35298 11.0027 3.35444C11.3923 3.35619 11.7821 3.35444 12.1717 3.35444C12.6927 3.35444 13.3237 3.24719 13.7395 3.63469C14.2582 4.11864 14.1089 4.97285 13.4812 5.28408C13.2024 5.42231 12.8532 5.39425 12.5516 5.38052ZM10.7356 8.37274C10.8393 8.1933 10.9367 8.01913 10.9785 7.81339C11.0001 7.7076 11.0021 7.60006 11.0261 7.49603C11.1444 7.48755 11.264 7.49486 11.3817 7.47645C11.9122 7.39316 12.3651 7.02435 12.5551 6.52258C12.6284 6.32854 12.6287 6.1304 12.6685 5.93256C13.2293 5.90216 13.6907 5.91298 14.1218 5.4866C14.2138 5.39542 14.3035 5.2908 14.3681 5.17858C14.4166 5.09413 14.4441 4.99097 14.5096 4.92054C16.0777 4.73175 17.7531 5.24872 18.4898 6.7441C18.6573 7.08426 18.7631 7.45511 18.8057 7.83122C18.8224 7.97705 18.8499 8.1746 18.7426 8.2953C18.6111 8.44346 18.3677 8.39816 18.1918 8.39729C17.7438 8.39495 17.2955 8.39641 16.8475 8.39699C15.4251 8.39933 14.0031 8.40021 12.5808 8.39787C12.162 8.39729 11.7429 8.39787 11.3242 8.39758C11.1404 8.39729 10.9069 8.43498 10.7356 8.37274ZM10.915 6.96445C10.7996 6.77128 10.704 6.58483 10.5293 6.43462C10.1535 6.11228 9.71862 6.11316 9.24929 6.11316C8.88896 6.11316 8.52834 6.11491 8.16801 6.11433C7.9839 6.11433 7.77349 6.14414 7.59814 6.09329C7.64929 5.91707 7.71446 5.73237 7.81235 5.57632C8.18788 4.97811 8.66773 4.98483 9.30773 4.98571C9.62919 4.986 9.95066 4.98804 10.2721 4.98717C10.7879 4.98571 11.4075 4.87758 11.8175 5.26392C12.2497 5.67129 12.212 6.39721 11.7406 6.75842C11.494 6.9475 11.2181 6.97993 10.915 6.96445ZM8.54792 8.50395C8.38134 8.98176 8.29279 9.50428 8.27467 10.0093C8.26006 10.4061 8.30565 10.8109 8.40004 11.196C8.47194 11.4889 8.58737 11.7612 8.74956 12.0143C9.14145 12.6268 9.82149 13.017 10.5354 13.1166C10.7964 13.1532 11.0615 13.1403 11.3242 13.1397C11.6845 13.1391 12.0451 13.1409 12.4055 13.1409C12.6737 13.1406 13.2874 13.0959 13.5107 13.1654C13.1436 13.8089 12.5495 13.6923 11.9387 13.8823C11.4311 14.0401 11.0252 14.3969 10.5009 14.5147C9.92552 14.6439 9.31972 14.5372 8.79749 14.2745C8.57948 14.1646 8.38368 13.9933 8.16333 13.896C8.26415 14.2365 8.55084 14.6661 8.74868 14.9671C9.10025 15.5016 9.52224 16.006 10.0076 16.425C10.5863 16.9245 11.2353 17.3336 11.8151 17.8316C12.5405 18.4543 13.1594 19.2349 13.48 20.1435C13.584 20.4386 13.6627 20.7449 13.6977 21.0567C13.762 21.6318 13.6457 22.1967 13.4581 22.738C13.3812 22.9598 13.2465 23.1693 13.1875 23.3937C13.4274 23.2947 13.7094 22.939 13.8564 22.7269C14.2965 22.093 14.4456 21.2931 14.3082 20.5365C14.2515 20.225 14.118 19.9486 14.0163 19.6531C14.3065 19.2498 14.6931 18.881 15.0902 18.5841C15.5166 18.265 15.9713 17.9897 16.4728 17.8041C18.8192 16.935 21.4046 17.9014 23.1013 19.6084C23.1078 19.502 23.0344 19.3895 22.9827 19.2904C22.85 19.0356 22.6881 18.7901 22.5034 18.5701C21.6665 17.5744 20.4765 17.02 19.1824 16.9645C19.1988 16.783 19.4341 16.4993 19.5469 16.3459C19.9385 15.8143 20.3996 15.3432 20.9464 14.9712C22.6463 13.8142 25.1131 13.5746 26.6342 15.1711C26.9606 15.5139 27.1932 15.9215 27.3794 16.3537C27.6065 16.8804 27.686 17.4771 27.7029 18.0458C27.7432 19.4141 27.3636 20.8177 26.7002 22.0109C26.491 22.3876 26.2669 22.7534 25.9995 23.0924C25.9431 23.164 25.7724 23.4028 25.6955 23.4306C25.6035 23.4639 25.4503 23.4145 25.3562 23.3984C25.0912 23.3537 24.8282 23.2801 24.5745 23.1912C23.3737 22.7713 22.6405 22.0147 21.9616 20.9764C21.9324 21.1993 22.0484 21.5684 22.1215 21.787C22.3848 22.5752 22.8521 23.2532 23.5312 23.7392C23.7282 23.8797 23.9421 23.9981 24.1604 24.1018C24.2791 24.1579 24.4199 24.1942 24.5237 24.2705C24.1546 24.7293 23.6768 25.1165 23.2212 25.4853C21.4704 26.9026 19.2841 27.7387 17.0228 27.7376C16.4749 27.7373 15.9249 27.6861 15.3866 27.585C14.7872 27.4725 14.1869 27.3112 13.5744 27.2945C13.222 27.2849 12.8716 27.3153 12.5273 27.3918C11.5606 27.6063 10.6193 28.0225 9.67361 27.4547C9.07716 27.0967 8.75804 26.3655 8.57188 25.7252C8.51519 25.5303 8.45265 25.1402 8.37637 24.9809C8.31617 24.8549 8.1832 24.7296 8.0967 24.6185C7.93363 24.4096 7.78342 24.1901 7.63146 23.9732C7.23723 23.411 6.91285 22.802 6.6174 22.1836C6.18839 21.2855 5.92362 20.3144 5.79504 19.3302C5.72783 18.8167 5.72461 18.2986 5.69042 17.7828C5.63811 16.9946 5.60596 16.2047 5.56008 15.4157C5.5367 15.017 5.52794 14.6158 5.4841 14.2189C5.40783 13.529 5.25499 12.8589 5.13254 12.1774C5.05568 11.7495 4.95807 11.322 5.02821 10.886C5.10098 10.431 5.35931 10.0487 5.56972 9.64689C5.92918 8.95955 6.29681 8.27338 6.67672 7.59714C6.88859 7.21986 7.07679 6.86625 7.50843 6.70582C7.81031 6.59389 8.14317 6.63188 8.46025 6.63305C8.71362 6.63393 8.96669 6.63363 9.22006 6.63393C9.38284 6.63393 9.5538 6.61931 9.7157 6.64065C10.0366 6.68331 10.3203 6.94165 10.4215 7.24236C10.4647 7.37153 10.4881 7.50713 10.4711 7.64302C10.4574 7.75582 10.427 7.86395 10.3785 7.96711C10.029 8.70969 9.18792 8.42768 8.54792 8.50395ZM9.89835 8.95283C10.1552 8.89906 10.4489 8.935 10.7105 8.93529C11.2073 8.93617 11.7041 8.93559 12.2009 8.93646C13.7693 8.93851 15.3375 8.93529 16.9059 8.93617C17.1981 8.93617 17.4904 8.93676 17.7826 8.93617C17.9591 8.93559 18.1505 8.91455 18.3233 8.95751C18.6821 9.04664 18.8975 9.38446 18.8709 9.74596C18.8092 10.5794 17.8609 10.438 17.2858 10.4377C17.1397 10.4377 16.9936 10.438 16.8475 10.438C15.279 10.4386 13.7109 10.4389 12.1424 10.4377C11.6553 10.4374 11.1684 10.4374 10.6812 10.438C10.4299 10.438 10.1447 10.4739 9.89805 10.424C9.11603 10.2656 9.11807 9.1159 9.89835 8.95283ZM9.72067 10.9374C9.94715 10.8904 10.2166 10.9292 10.4475 10.9292C10.9539 10.9286 11.4606 10.9289 11.9671 10.9289C13.5548 10.9289 15.1428 10.9295 16.7306 10.9292C17.2469 10.9289 17.763 10.9295 18.2794 10.9281C18.5477 10.9272 18.8011 10.9596 18.7938 11.2951C18.7789 11.9594 18.1482 12.5395 17.5196 12.6301C17.3373 12.6564 17.1482 12.6429 16.9644 12.6429C16.6333 12.6429 16.3019 12.6438 15.9707 12.6438C14.9771 12.6435 13.9835 12.6432 12.9899 12.6435C12.5127 12.6435 12.0352 12.6417 11.558 12.6429C11.2134 12.6438 10.87 12.6672 10.5372 12.5617C10.0775 12.4156 9.69056 12.0403 9.52779 11.5868C9.44596 11.3588 9.4068 11.0029 9.72067 10.9374ZM7.55431 18.1723C7.42017 18.7191 7.43683 19.3875 7.48388 19.9453C7.6376 21.7736 8.50963 23.7137 10.1397 24.6808C10.5281 24.9113 10.963 25.1425 11.4118 25.224C11.3715 25.139 11.2575 25.0762 11.1819 25.013C11.0065 24.8669 10.8361 24.7161 10.6704 24.5589C10.1716 24.0858 9.71891 23.5404 9.33988 22.9668C8.73962 22.0573 8.251 21.048 7.96023 19.995C7.83515 19.5421 7.72731 19.0844 7.63906 18.6227C7.61013 18.4725 7.59435 18.3205 7.55431 18.1723ZM22.0201 22.5261C20.7214 24.0124 19.3101 24.8824 17.3966 25.3862C17.0099 25.4879 16.6011 25.5519 16.2037 25.5908C15.9871 25.6118 15.7495 25.5934 15.54 25.644C17.4083 26.3278 19.6696 25.6644 21.0276 24.257C21.3698 23.9019 21.6425 23.4759 21.8436 23.0267C21.9108 22.8762 22.0218 22.6894 22.0201 22.5261Z" fill="#030303" stroke="#030303" stroke-width="0.25" stroke-linejoin="round"/>
</svg>
